# xmcd
#
# Track frame offsets: 
#        150
#        13500
#        28087
#        45106
#        56993
#        70707
#        87708
#        100032
#        112994
#        123959
#
# Disc length: 1781 seconds
#
# Revision: 0
# Processed by: cddbd v1.5.2PL0 Copyright (c) Steve Scherf et al.
# Submitted via: ExactAudioCopy v0.95b4
#
DISCID=7906f30a
DTITLE=Johnny Jones - Garden of Love
DYEAR=2008
DGENRE=Gospel
TTITLE0=Keep On The Sunny Side
TTITLE1=Anchored In Love
TTITLE2=The Unclouded Day
TTITLE3=Garden Of Love
TTITLE4=I Saw The Light
TTITLE5=Just A Closer Walk With Thee
TTITLE6=Life's Railway To Heaven
TTITLE7=Take Me In Your Lifeboat
TTITLE8=Will There Be Any Stars In My Crown
TTITLE9=Looking Out For Number One
EXTD=
EXTT0=
EXTT1=
EXTT2=
EXTT3=
EXTT4=
EXTT5=
EXTT6=
EXTT7=
EXTT8=
EXTT9=
PLAYORDER=
